PathFileType	4	(X/Y/Z)	./resultDataOpenSim/trcMotMarkerGrf/sub06/qtm-04-06.trc
DataRate	CameraRate	NumFrames	NumMarkers	Units	OrigDataRate	OrigDataStartFrame	OrigNumFrames
250.000000	250.000000	12	24	m	250.000000	486	555
Frame#	Time	L.Toe.Tip			R.Toe.Tip			L.Ankle.Lat			R.Ankle.Lat			L.Ankle.Med			R.Ankle.Med			L.Heel			R.Heel			L.Knee.Lat			R.Knee.Lat			L.Knee.Med			R.Knee.Med			L.Thigh.Upper			R.Thigh.Upper			L.ASIS			R.ASIS			V.Sacral			L.Acromium			R.Acromium			C7			L.Elbow			R.Elbow			L.Wrist.Lat			R.Wrist.Lat
		X1	Y1	Z1	X2	Y2	Z2	X3	Y3	Z3	X4	Y4	Z4	X5	Y5	Z5	X6	Y6	Z6	X7	Y7	Z7	X8	Y8	Z8	X9	Y9	Z9	X10	Y10	Z10	X11	Y11	Z11	X12	Y12	Z12	X13	Y13	Z13	X14	Y14	Z14	X15	Y15	Z15	X16	Y16	Z16	X17	Y17	Z17	X18	Y18	Z18	X19	Y19	Z19	X20	Y20	Z20	X21	Y21	Z21	X22	Y22	Z22	X23	Y23	Z23	X24	Y24	Z24

486	1.94	1.6270179	0.033761787	-0.10606936	1.577133	0.069127665	0.092951644	1.5014339	0.06939184	-0.12596643	1.4749463	0.16042689	0.098859898	1.5004651	0.08272341	-0.039135344	1.5135456	0.16812849	0.016688561	1.4270583	0.043255611	-0.080928089	1.4316251	0.16083909	0.028881373	1.5825985	0.43603553	-0.13693368	1.6951522	0.47443329	0.13281171	1.5547435	0.43410098	-0.018099954	1.6961009	0.46303233	0.00064728379	1.5419525	0.83169583	-0.20332542	1.5273772	0.80911982	0.14184527	1.6101089	0.88048902	-0.1556568	1.611272	0.87411401	0.088932395	1.420521	0.93758054	-0.024833321	1.5274221	1.3561239	-0.21359766	1.5331772	1.3464145	0.14937658	1.4505025	1.3839922	-0.032307181	1.483174	1.0373082	-0.26799995	1.4477053	1.0367569	0.2070193	1.6498634	0.85503876	-0.29519011	1.5922078	0.8398391	0.22217453
487	1.944	1.6270554	0.033730784	-0.10606197	1.5955298	0.068343837	0.092787679	1.5015006	0.069540012	-0.12587828	1.4907772	0.15645541	0.098360116	1.5005801	0.082906332	-0.039053035	1.5293785	0.1654299	0.015684351	1.427128	0.043496913	-0.080756152	1.4485838	0.15478087	0.02808127	1.5833653	0.43591252	-0.13700357	1.7033333	0.47648675	0.13213666	1.555951	0.43418867	-0.018078993	1.7036663	0.46543752	0.00038835306	1.5472738	0.83180614	-0.20335518	1.5335452	0.80993317	0.14197424	1.6151842	0.88081294	-0.1558512	1.6167157	0.87531882	0.088414108	1.4255819	0.93803353	-0.025048918	1.5331409	1.3569694	-0.21364405	1.5380252	1.3466589	0.14930277	1.4556641	1.3843798	-0.032527046	1.4904695	1.0379353	-0.26911415	1.4506458	1.0375732	0.2064831	1.6599904	0.85755477	-0.29451814	1.5933003	0.83938292	0.22304812
488	1.948	1.6270894	0.033698799	-0.1060553	1.613882	0.067563432	0.09266083	1.5015702	0.06969862	-0.12578305	1.5067693	0.15245591	0.097896815	1.5006868	0.083088924	-0.038983947	1.546371	0.16202829	0.014771947	1.4272128	0.043735744	-0.080575138	1.4635619	0.14962941	0.027960285	1.5841438	0.43579819	-0.13710193	1.7113746	0.4784468	0.13145714	1.5571864	0.43425755	-0.018073488	1.711116	0.46767802	6.6715161e-05	1.5525229	0.83184767	-0.20340391	1.5400718	0.810559	0.14214244	1.6202639	0.88104264	-0.15602658	1.6221595	0.87641575	0.087914337	1.430752	0.93844733	-0.025270052	1.5388314	1.3577098	-0.2136778	1.5428563	1.3468245	0.1492402	1.4608207	1.384711	-0.032741556	1.4977454	1.0384875	-0.27021061	1.4536062	1.03829	0.2059757	1.6703122	0.86001034	-0.29379215	1.5943553	0.83888267	0.22390443
489	1.952	1.6271244	0.033668299	-0.10605168	1.6322545	0.066778516	0.092545125	1.5016486	0.06986477	-0.12569002	1.5229101	0.14844779	0.097464717	1.500845	0.083273916	-0.038935933	1.5637024	0.15819324	0.014210439	1.4273088	0.043982309	-0.080399489	1.4772656	0.14507669	0.028309131	1.5849446	0.43569045	-0.13722296	1.7192682	0.48029442	0.13076539	1.5584314	0.43429878	-0.018067147	1.7184567	0.46970809	-0.00031305706	1.5573679	0.83182112	-0.20354756	1.5466246	0.81119158	0.14226839	1.6254471	0.88118158	-0.15617484	1.6276105	0.87739327	0.087435038	1.4360108	0.93883299	-0.025499704	1.5445083	1.3583648	-0.21370467	1.5476632	1.3469195	0.14918129	1.4659681	1.3849928	-0.032965807	1.5050425	1.038962	-0.27132138	1.4566181	1.0388977	0.2054864	1.6808055	0.86240524	-0.29302543	1.5953664	0.83832244	0.22473159
490	1.956	1.6271656	0.033640453	-0.10605248	1.6506939	0.066012668	0.092423982	1.5017404	0.070035074	-0.12560605	1.5391895	0.14444222	0.097062213	1.5010672	0.083466986	-0.038902055	1.5803004	0.15448099	0.014132193	1.4274105	0.044243239	-0.080241365	1.491201	0.1405162	0.028631395	1.5857855	0.43558675	-0.13736478	1.7270009	0.48200236	0.13005212	1.5596696	0.43429742	-0.018044651	1.7256763	0.47150585	-0.00071187992	1.5618859	0.83173453	-0.20375772	1.5530563	0.81187868	0.1423427	1.6308529	0.88122966	-0.1562851	1.6330658	0.87824277	0.086973345	1.4412664	0.93917545	-0.025721836	1.5501843	1.3589576	-0.21373218	1.5524495	1.346947	0.14911972	1.4711119	1.3852183	-0.033199191	1.512402	1.0393611	-0.27247523	1.4597556	1.039394	0.20500305	1.6912796	0.86476207	-0.29224036	1.5963654	0.8377002	0.22553437
491	1.96	1.627216	0.033614502	-0.10605841	1.6692059	0.065316379	0.092303117	1.5018451	0.070207413	-0.12553384	1.555607	0.14044469	0.096687803	1.501306	0.083667074	-0.038864018	1.5962884	0.15113629	0.01422191	1.4275107	0.044522901	-0.080098969	1.5064734	0.1355183	0.028524238	1.5866788	0.43548615	-0.13752859	1.7345701	0.48354948	0.12931571	1.5608993	0.4342505	-0.018015027	1.7327491	0.47309153	-0.0010705795	1.5664925	0.83160209	-0.20392135	1.5593541	0.81258389	0.14239414	1.6364416	0.8811727	-0.15636822	1.6385363	0.87895726	0.086530122	1.4464374	0.93944188	-0.025915671	1.5558707	1.3595102	-0.21376733	1.557225	1.346902	0.14905609	1.4762596	1.3853688	-0.033428736	1.5198368	1.0396845	-0.27368331	1.463063	1.0398143	0.20452078	1.701551	0.86710557	-0.29145314	1.5973891	0.83704755	0.22632371
492	1.964	1.6272756	0.033588372	-0.10606962	1.6877829	0.064740246	0.092196212	1.5019584	0.070381255	-0.12547237	1.5721662	0.13646542	0.096338355	1.501486	0.083864821	-0.038803458	1.6126222	0.14806314	0.013984052	1.4276038	0.044823819	-0.079959361	1.5230685	0.13010503	0.027985198	1.5876252	0.43538696	-0.13771471	1.7419878	0.48493126	0.12856563	1.5621582	0.43417915	-0.018017487	1.7396558	0.47448432	-0.0013411371	1.5714677	0.83143459	-0.20396961	1.5655508	0.81326147	0.14244468	1.6418959	0.88098983	-0.15647678	1.6440315	0.87953041	0.086108886	1.4515305	0.93961047	-0.02606813	1.5615689	1.3600204	-0.21380969	1.5619989	1.3467758	0.14899796	1.4814096	1.3854309	-0.03364464	1.5273284	1.0399294	-0.27492827	1.4664407	1.0402084	0.20404322	1.7115988	0.869438	-0.29066652	1.5984639	0.8364095	0.22711033
493	1.968	1.627344	0.033561234	-0.10608637	1.7064186	0.064311127	0.09211223	1.5020768	0.070557086	-0.12541743	1.5888814	0.1325211	0.096010851	1.5015704	0.084055402	-0.038716191	1.6296973	0.145149	0.013290871	1.4276931	0.045142824	-0.079812398	1.5403878	0.12452256	0.027277152	1.5886271	0.43528424	-0.13791921	1.7492695	0.48615638	0.12781681	1.5634979	0.43411372	-0.018080554	1.7463952	0.47566273	-0.0015104592	1.5766909	0.83123247	-0.20394364	1.5717022	0.81385866	0.14250652	1.6468781	0.88068357	-0.15666414	1.6495339	0.87996196	0.085708895	1.4566099	0.93967916	-0.026173798	1.5672602	1.3604474	-0.21384792	1.5667738	1.3465649	0.14895551	1.486558	1.385414	-0.033841152	1.5348403	1.0400948	-0.27616587	1.4696791	1.0405809	0.20357724	1.7215086	0.87174352	-0.28987248	1.5995991	0.83578562	0.22790006
494	1.972	1.6274204	0.033534369	-0.10610955	1.7251062	0.064036194	0.09205662	1.5022025	0.070735478	-0.12536375	1.6057972	0.12863173	0.095707304	1.5016474	0.08425544	-0.038629304	1.6469517	0.14241371	0.012488127	1.4277909	0.045471336	-0.079659039	1.5579145	0.11897261	0.026657841	1.589699	0.43517237	-0.13813374	1.7564278	0.48723215	0.12708055	1.5648971	0.43406236	-0.018164457	1.7529719	0.47660106	-0.0016104886	1.5818659	0.8309904	-0.2039246	1.5778515	0.81433004	0.14258333	1.6514485	0.88028707	-0.15691862	1.6550247	0.8802571	0.085329542	1.4617225	0.939656	-0.026235153	1.5729177	1.3607475	-0.21386974	1.5715434	1.3462737	0.14893551	1.4917063	1.3853419	-0.034012481	1.5423417	1.0401809	-0.27735935	1.4726966	1.0408868	0.20313123	1.7313539	0.87400689	-0.28905953	1.6007946	0.83512905	0.22869398
495	1.976	1.6275012	0.033508827	-0.10613938	1.7438375	0.063918739	0.092033925	1.5023477	0.070916163	-0.1253109	1.622976	0.12482154	0.095437183	1.5020083	0.084505494	-0.038617666	1.6635335	0.13997345	0.012029846	1.427906	0.045803439	-0.079505723	1.5753383	0.11358393	0.026262346	1.5908589	0.43504795	-0.13834685	1.763465	0.48815464	0.12636015	1.5662356	0.43399998	-0.018168014	1.759388	0.47732135	-0.0017109746	1.586819	0.83070211	-0.20395999	1.5839949	0.81465849	0.14266741	1.6559793	0.87983349	-0.15718142	1.6605129	0.88041864	0.084976064	1.4668739	0.93954849	-0.026263526	1.5785301	1.3609162	-0.21387469	1.5762981	1.3459098	0.14893577	1.4968561	1.3852291	-0.034162491	1.5498249	1.0401872	-0.27850547	1.475677	1.04109	0.20271046	1.74116	0.87621999	-0.28822209	1.6020442	0.83440919	0.22949154
496	1.98	1.6275808	0.03348426	-0.1061739	1.7625984	0.063962996	0.092044961	1.5025348	0.071097525	-0.12526721	1.6404207	0.1211139	0.095208526	1.5030666	0.084843389	-0.038781409	1.6791383	0.13788234	0.012085047	1.4280361	0.04614173	-0.079353841	1.5925987	0.10845243	0.026024943	1.5921195	0.43491184	-0.13854764	1.7703645	0.48891385	0.12565394	1.5674576	0.43390209	-0.018041345	1.7656465	0.47787432	-0.0018777675	1.5915552	0.83036373	-0.20405814	1.5900986	0.8148458	0.14274743	1.6606974	0.87933396	-0.15742016	1.6660203	0.88044589	0.084654776	1.4720508	0.93936044	-0.026269997	1.5841035	1.3609763	-0.21387297	1.5810325	1.3454797	0.14894699	1.5020052	1.3850728	-0.034307122	1.5572918	1.0401142	-0.27960936	1.478814	1.0412011	0.20231195	1.7509218	0.87837934	-0.28736333	1.6033235	0.83363342	0.23029007
497	1.984	1.6276547	0.033459808	-0.10620943	1.7813646	0.064170922	0.092082042	1.502781	0.071279054	-0.1252422	1.6580227	0.11750975	0.095018227	1.504873	0.085250871	-0.039124785	1.6943976	0.13593397	0.012454949	1.4281719	0.046492852	-0.079196173	1.6098524	0.10367105	0.025711976	1.5934811	0.4347708	-0.13873168	1.7771035	0.48950235	0.12496159	1.5687299	0.43378986	-0.017880574	1.7717561	0.47828629	-0.0021330214	1.5961668	0.82997492	-0.20420043	1.5961322	0.81489687	0.14281573	1.665571	0.8787869	-0.15764417	1.6715536	0.88034241	0.084367994	1.4772391	0.93909641	-0.026251965	1.5896473	1.3609439	-0.21387231	1.5857487	1.3449898	0.14896236	1.5071523	1.3848628	-0.034454849	1.5647486	1.0399659	-0.28067049	1.4819732	1.0412575	0.20192559	1.7606245	0.88048688	-0.28648936	1.6046006	0.83281789	0.2310865
